<?xml version="1.0" encoding="UTF-8" standalone="no"?>
<svg
   xmlns:dc="http://purl.org/dc/elements/1.1/"
   xmlns:cc="http://creativecommons.org/ns#"
   xmlns:rdf="http://www.w3.org/1999/02/22-rdf-syntax-ns#"
   xmlns:svg="http://www.w3.org/2000/svg"
   xmlns="http://www.w3.org/2000/svg"
   xmlns:sodipodi="http://sodipodi.sourceforge.net/DTD/sodipodi-0.dtd"
   xmlns:inkscape="http://www.inkscape.org/namespaces/inkscape"
   height="587.25024"
   width="563.18665"
   version="1.1"
   id="svg2"
   inkscape:version="0.48.1 "
   sodipodi:docname="ZZ1.svg">
  <metadata
     id="metadata50">
    <rdf:RDF>
      <cc:Work
         rdf:about="">
        <dc:format>image/svg+xml</dc:format>
        <dc:type
           rdf:resource="http://purl.org/dc/dcmitype/StillImage" />
      </cc:Work>
    </rdf:RDF>
  </metadata>
  <defs
     id="defs48">
    <inkscape:perspective
       sodipodi:type="inkscape:persp3d"
       inkscape:vp_x="0 : 300 : 1"
       inkscape:vp_y="0 : 1000 : 0"
       inkscape:vp_z="900 : 300 : 1"
       inkscape:persp3d-origin="450 : 200 : 1"
       id="perspective52" />
    <inkscape:perspective
       id="perspective2841"
       inkscape:persp3d-origin="0.5 : 0.33333333 : 1"
       inkscape:vp_z="1 : 0.5 : 1"
       inkscape:vp_y="0 : 1000 : 0"
       inkscape:vp_x="0 : 0.5 : 1"
       sodipodi:type="inkscape:persp3d" />
    <inkscape:perspective
       id="perspective2854"
       inkscape:persp3d-origin="0.5 : 0.33333333 : 1"
       inkscape:vp_z="1 : 0.5 : 1"
       inkscape:vp_y="0 : 1000 : 0"
       inkscape:vp_x="0 : 0.5 : 1"
       sodipodi:type="inkscape:persp3d" />
    <inkscape:perspective
       id="perspective2867"
       inkscape:persp3d-origin="0.5 : 0.33333333 : 1"
       inkscape:vp_z="1 : 0.5 : 1"
       inkscape:vp_y="0 : 1000 : 0"
       inkscape:vp_x="0 : 0.5 : 1"
       sodipodi:type="inkscape:persp3d" />
    <inkscape:perspective
       id="perspective2880"
       inkscape:persp3d-origin="0.5 : 0.33333333 : 1"
       inkscape:vp_z="1 : 0.5 : 1"
       inkscape:vp_y="0 : 1000 : 0"
       inkscape:vp_x="0 : 0.5 : 1"
       sodipodi:type="inkscape:persp3d" />
    <inkscape:perspective
       id="perspective2893"
       inkscape:persp3d-origin="0.5 : 0.33333333 : 1"
       inkscape:vp_z="1 : 0.5 : 1"
       inkscape:vp_y="0 : 1000 : 0"
       inkscape:vp_x="0 : 0.5 : 1"
       sodipodi:type="inkscape:persp3d" />
    <inkscape:perspective
       id="perspective2884"
       inkscape:persp3d-origin="0.5 : 0.33333333 : 1"
       inkscape:vp_z="1 : 0.5 : 1"
       inkscape:vp_y="0 : 1000 : 0"
       inkscape:vp_x="0 : 0.5 : 1"
       sodipodi:type="inkscape:persp3d" />
    <inkscape:perspective
       id="perspective2845"
       inkscape:persp3d-origin="0.5 : 0.33333333 : 1"
       inkscape:vp_z="1 : 0.5 : 1"
       inkscape:vp_y="0 : 1000 : 0"
       inkscape:vp_x="0 : 0.5 : 1"
       sodipodi:type="inkscape:persp3d" />
    <inkscape:perspective
       id="perspective2858"
       inkscape:persp3d-origin="0.5 : 0.33333333 : 1"
       inkscape:vp_z="1 : 0.5 : 1"
       inkscape:vp_y="0 : 1000 : 0"
       inkscape:vp_x="0 : 0.5 : 1"
       sodipodi:type="inkscape:persp3d" />
  </defs>
  <sodipodi:namedview
     pagecolor="#ffffff"
     bordercolor="#666666"
     borderopacity="1"
     objecttolerance="10"
     gridtolerance="10"
     guidetolerance="10"
     inkscape:pageopacity="0"
     inkscape:pageshadow="2"
     inkscape:window-width="1280"
     inkscape:window-height="1004"
     id="namedview46"
     showgrid="false"
     inkscape:zoom="0.35355339"
     inkscape:cx="655.65451"
     inkscape:cy="278.47103"
     inkscape:window-x="-8"
     inkscape:window-y="-8"
     inkscape:window-maximized="1"
     inkscape:current-layer="svg2" />
  <desc
     id="desc4">flag of Uganda</desc>
  <!--
	from http://commons.wikimedia.org/wiki/Image:Flag_of_Uganda.svg
	this file is in the public domain
-->
  <path
     d="m 455.9056,4.5e-4 -0.75,0.78125 -1.375,1.4375 -3.03125,2.4375 -1.6875,1.59375 -0.40625,0.5625 -0.65625,0.875 -1.46875,0.9375 -7.46875,6.84375 -8,7.375 -0.6875,0.71875 -0.4375,0.71875 -0.21875,0.15625 -1.1875,0.9375 -1.53125,1.59375 -0.84375,0.65625 -0.59375,0.8125 -5.125,5 -0.1875,0.1875 -0.53125,0.5 -1.4375,1.625 -2.1875,1.96875 -0.8125,1.1875 -1.59375,1.25 -1.09375,1.40625 -0.78125,0.46875 -0.5,0.5 -3.46875,3.5 -0.75,0.96875 -0.84375,0.71875 -1.03125,0.875 -4.375,-0.375 -8.09375,-0.6875 -1.59375,0.0625 -0.53125,-0.1875 -1.34375,-0.0937 -1.3125,-0.25 -0.25,-0.0625 -2.96875,0.125 -1.96875,-0.28125 -6.1875,-0.5 -1.5,-0.28125 -1.1875,0.0625 -2.5625,-0.15625 -0.34375,-0.0312 -2.125,-1.375 -5.125,-3.75 -7.0625,-5.1875 -1.375,-1.21875 -0.40625,-0.15625 -0.28125,0.0625 -1.4375,0.84375 -10,6.0625 -1.15625,0.5 -1.25,0.5 -10.78125,2.75 -0.46875,0.15625 -1.09375,0.3125 -0.59375,0.3125 -3.125,0.65625 -1.625,0.5625 -0.9375,0.15625 -1.375,0.0312 -2.3125,0.0312 -1.625,0.15625 -1.875,0.15625 -0.96875,-0.125 -2.8125,0.0937 -7.28125,0.46875 -2.0625,0.15625 -2.96875,-0.0625 -1,0.1875 -6.03125,0.34375 -0.75,0.40625 -11.1875,6.5625 -9.625,5.625 -0.75,0.5625 0.0625,0.28125 0.5,0.375 0.40625,0.375 0.34375,1.15625 0.1875,0.84375 -0.0937,1 0.5,2.25 -0.59375,3 -0.375,0.15625 0.0312,1 -0.21875,0.3125 -0.96875,-0.125 -0.15625,-0.0312 -3.5625,-0.5625 -1.96875,-0.0625 -0.59375,-0.125 -0.25,-0.25 -1.28125,-0.25 -1.09375,0.0312 -1.59375,-0.53125 -0.15625,-0.0625 -0.15625,-1.09375 -0.4375,-1 0.0312,-0.71875 -0.25,-0.53125 -0.625,-0.65625 -2.34375,-1.625 -1.5625,-0.34375 -1.15625,0.375 -0.59375,0.0312 -0.84375,0.3125 -0.96875,-0.3125 -2.8125,-0.15625 -1.21875,0.125 -0.28125,0 -0.1875,-0.21875 -0.5,-1.21875 -1.09375,-7.53125 -0.625,-1.78125 -0.46875,-0.875 -0.5625,-0.75 -3.78125,-4.78125 -0.53125,-0.59375 -0.5625,-0.34375 -1.46875,-1.84375 -2.25,-2.125 -0.1875,-0.1875 -0.78125,-1.90625 -0.40625,-0.28125 -0.875,-0.25 -1.625,0 -0.0937,0 -0.4375,0.0937 -0.375,0.3125 -0.28125,0.4375 -0.0312,0.4375 0.46875,0.59375 0.0625,0.65625 -0.75,0.75 -1.53125,1 -0.84375,1.03125 -2.0625,1.96875 -1.78125,0.75 -0.65625,0.625 -0.21875,1.09375 -0.53125,0.78125 -1.34375,1.15625 -0.46875,0.1875 -1.3125,0.21875 -0.5,-0.125 -1.53125,0.125 -2.4375,0.8125 -0.15625,0.0312 -1.125,0.21875 -1.375,0.75 -2.15625,0.75 -0.15625,0.0312 -0.96875,0.1875 -1.0625,0.59375 -1.46875,1.21875 -1.96875,1.1875 -5.875,-3 -0.6875,-0.34375 -4.0625,-2.3125 -1.6875,-1.15625 -0.8125,-0.3125 -4,-2.3125 -6.6875,-3.8125 -2.40625,-0.96875 -0.15625,-0.0625 -2.53125,0 -8.6875,-0.0625 -0.3125,0.0312 -0.46875,0.34375 -0.625,0.125 -2.34375,1.46875 -1.96875,1.3125 -1.21875,1.09375 -0.75,1.21875 -0.28125,0.0937 -0.375,-0.25 -2.0625,-0.25 -0.5625,0.0937 -0.40625,0.25 -0.28125,0.5 -0.15625,0.9375 -1.1875,1.4375 -0.28125,0.15625 -1.96875,1.03125 -1.5625,0.46875 -1.15625,-0.1875 -1.28125,-0.59375 -0.65625,0.0625 -1.875,2.34375 -1.375,1.25 -0.25,0.5 -0.59375,2.84375 -0.4375,0.84375 -0.34375,0.34375 -0.46875,0.46875 -0.15625,0.5 -0.78125,1.375 -0.53125,0.1875 -0.40625,0.34375 -0.46875,1.46875 -1.59375,2.375 -0.59375,1.3125 -0.96875,0.4375 -2.21875,5.625 0.90625,0.59375 0.53125,-0.0937 0.65625,-0.3125 2.3125,-1.78125 1.28125,-0.28125 0.53125,0.0625 0.90625,0.59375 0.59375,0.1875 0.5,1.46875 0.0625,2.625 0.15625,5.6875 -1.96875,2.40625 -0.5625,1.1875 -1.78125,2.28125 -0.3125,0.40625 -0.40625,1.09375 0.0312,1.375 -0.1875,0.59375 -2.5,2.71875 -1.8125,1.0625 -0.6875,0.6875 372.25,0 -0.125,-0.5625 -0.53125,-2.25 -1.3125,-3.90625 -1.40625,-2.5 -1.21875,-2.8125 -0.0312,-0.65625 -0.125,-1.53125 0.25,-0.875 1.4375,-2.34375 0,-0.59375 -0.21875,-0.90625 -1.90625,-3.46875 0.0937,-0.25 0.96875,-0.375 1.03125,0.0312 1.34375,-0.78125 1.25,-1 0.3125,-0.5625 0.4375,-0.71875 0.4375,-2.9375 0.25,-5.40625 0.0312,-0.84375 0.5,-4.4375 0,-1.875 -0.40625,-0.65625 -1,-0.4375 -3.40625,-1.0625 -0.40625,0 -0.21875,0 -0.25,-0.4375 -0.71875,-0.59375 -1.09375,-2.28125 -0.5625,-0.65625 -0.71875,-0.53125 -2.40625,-0.53125 -1.1875,0.3125 -0.78125,0.0312 -0.5625,0.28125 -0.5,0.4375 -0.5625,0.75 -0.0937,0.34375 -0.84375,2.40625 -0.4375,0.25 -0.375,-2.65625 -3.375,-3.15625 -0.9375,-1.90625 -0.1875,-0.5 -0.375,-1.09375 -0.8125,-0.15625 -1.625,0.6875 -0.34375,-0.0312 -0.375,-0.46875 -0.4375,0.0312 -2.15625,0.78125 -0.875,0.15625 -1.34375,0.65625 -0.28125,-0.21875 -0.25,-0.46875 0,-0.4375 1.59375,-0.90625 0.125,-0.0625 0.28125,-0.5 -0.0625,-0.46875 -0.34375,-0.3125 -2.6875,-0.25 -0.34375,-0.15625 0.0312,-0.34375 0.9375,-1.375 0.75,-0.65625 0.6875,-0.28125 3.09375,-0.125 1.125,-0.5625 0.0625,-0.125 0.28125,-0.53125 0.0312,-1.09375 -0.46875,-1.71875 -0.375,-0.75 -0.40625,-0.46875 -1.09375,-0.15625 -1.53125,-0.0312 -0.6875,0.1875 -1.65625,0.875 -0.53125,0.15625 -2.28125,-0.28125 -1.21875,-0.15625 -3.40625,0.0937 -0.0625,-0.90625 0.25,-0.4375 1.96875,-0.875 0.6875,-0.46875 0.4375,-1.1875 0.5625,-2.65625 0.125,-0.5625 -0.0312,-1.1875 -3.53125,-2.46875 -1.6875,-1.9375 -2.0625,-1.25 L 462.34305,20 l 0.40625,-0.5625 0.0937,-0.125 2.5,-1.03125 0.4375,-0.71875 0.125,-0.5 -0.0937,-0.6875 -0.375,-1.03125 -0.6875,-1.125 -0.71875,-1.25 -0.3125,-0.375 -1.53125,-1.1875 -0.34375,-0.5625 0.125,-0.96875 0.0625,-0.1875 0.78125,-2.625 -0.0312,-0.53125 -1.75,-3 -0.40625,-0.375 -2,-1.09375 L 455.9056,0 z m -350.71875,293.625 -1.40625,1.5 -4.125,5.1875 -1.6875,2.09375 -5.78125,6.96875 -1.0625,0.65625 -0.34375,0.21875 -1.71875,0.34375 -1.90625,0.71875 -0.34375,0 -0.21875,-0.1875 -0.59375,-0.125 -0.96875,0.4375 -0.34375,0.125 -0.65625,0.125 -2.71875,-1 -0.4375,0.3125 -1.90625,2.1875 -0.40625,2.125 -0.34375,0.375 -0.34375,0.0625 -0.625,-0.5625 -0.34375,-0.0312 -1.125,0.84375 -0.65625,0.1875 -0.3125,0.375 -0.75,0.25 -2.8125,2.46875 -1.0625,2.65625 -0.8125,0.28125 -0.375,0.34375 -0.75,2.96875 -0.0625,0.28125 0.28125,0.34375 -0.3125,0.78125 -0.375,1.6875 -0.90625,1.625 0.375,1.09375 -0.1875,0.53125 -1.0625,0.96875 -0.3125,0.59375 -0.40625,0.34375 -1.03125,0.53125 -0.28125,0.3125 -0.0312,1.15625 -0.28125,0.53125 -0.28125,0.1875 -0.5625,0.0625 -0.40625,0 -0.21875,0.21875 0.0937,0.21875 -0.53125,1.03125 -0.125,0.625 0.15625,0.9375 -0.1875,0.40625 -0.5,0.3125 -0.21875,0.6875 -0.34375,0.25 -0.71875,0.15625 -0.5625,1.34375 -0.4375,0.40625 -0.84375,-0.6563 -0.59375,-0.0625 -0.15625,-0.1875 -1.03125,-0.21875 -0.25,0.0312 -0.625,0.4375 -0.15625,-0.0625 -0.46875,-0.21875 -0.4375,0 -1.9375,0.96875 -1.1875,0.28125 -0.71875,0.625 -0.90625,0.34375 -0.96875,0.125 -1.0625,0.5625 -0.5625,0.125 -0.5,0.5 -0.5,0.0625 -0.53125,0.46875 -0.625,0.15625 -0.6875,0.46875 -0.125,0 -0.34375,-0.1875 -1.25,0.9375 -0.0625,0.1875 -0.34375,1.1875 -1.40625,1.5 -0.46875,0.75 -0.53125,1.40625 0,1.25 0.5625,2.3125 0.46875,0.71875 0.46875,0.9375 -0.15625,0.96875 -0.71875,1.75 0.3125,1.65625 -0.0937,0.71875 -0.5625,1.25 -0.8125,2.34375 -0.25,1.4375 0.0625,1.09375 0.71875,2.0625 0.96875,1.875 0.0312,0.53125 -0.0312,1.8125 0.71875,1.78125 0.0625,3 -0.0937,0.8125 -1.0625,1.5625 -5.125,5.71875 -0.40625,0.6875 -1.96875,2.53125 434.53125,0 -0.75,-1.59375 -0.3125,-1.65625 0,-0.0937 0,-0.78125 0.5,-1.125 0,-0.0312 0.75,-0.65625 1.96875,-0.8125 0.25,-0.40625 -0.1875,-0.71875 0.375,-2.96875 -0.625,-0.8125 0,-0.25 0.6875,-1.15625 0.21875,-0.96875 0.53125,-2.3125 0.40625,-0.75 0.34375,-0.3125 1.03125,-0.3125 0.46875,-1.1875 1.0625,-0.6875 0.90625,-0.5625 0.96875,-0.34375 0.96875,-1.15625 1.53125,-0.0312 0.53125,-0.15625 0.125,-0.0312 0.0625,-0.0312 1.15625,-0.625 1.65625,-0.3125 2.09375,-0.71875 0.9375,-0.875 0.25,-0.53125 0.21875,-1.90625 2.21875,-1.875 0.1875,-0.15625 0.21875,-0.5625 0.21875,-0.5 0.65625,-0.46875 0.125,-1 -0.25,-2.625 0.125,-0.90625 0.59375,-0.90625 0.625,-0.5 0.1875,-0.1875 0.9375,-0.4375 1.78125,-0.375 0.84375,-0.28125 0.25,-0.0937 1.375,-0.71875 1.28125,-1.3125 2.03125,-0.78125 0.21875,-0.21875 0.1875,-0.1875 0.34375,-0.71875 -0.21875,-0.875 0.3125,-0.78125 0.65625,-1.65625 1.40625,-0.4375 1.3125,-2.0625 0.15625,-0.4375 1.15625,-3.125 1.21875,-1.75 0.5625,-1.28125 -0.3125,-0.375 -0.0625,-0.28125 0.65625,-3.3125 0.0937,-0.28125 0.25,-0.84375 0.21875,-3.1875 0.28125,-1.40625 0.84375,-3.28125 0.1875,-0.5 0.5625,-1.40625 0.375,-0.90625 0.46875,-0.8125 0.125,-0.0937 0.15625,-0.0937 4.75,0.21875 0.4375,-0.3125 0.3125,-0.53125 0.1875,-0.875 0.3125,-2.78125 0.0937,-0.84375 2.3125,-0.15625 2.1875,-1.21875 1.8125,-0.46875 0.75,-0.4375 0.75,-0.8125 1.40625,-1.5 1.28125,-1.09375 0.59375,-0.21875 2,-0.28125 0.21875,0.0312 0.4375,0.0312 1.15625,-0.25 4.84375,-0.3125 3.125,-1.03125 0.375,-1 1,-1.4375 0.3125,-0.96875 0.375,-0.5625 0.15625,-0.21875 0.25,-1.03125 -0.125,-0.96875 0.75,-1.46875 -0.0625,-0.375 -0.25,-0.40625 -3.5,-5.46875 0.0625,-0.25 -432.96875,0 z"
     id="rect6" />
  <path
     style="fill:#d90000;fill-opacity:1"
     d="m 154.74935,195.75045 0.0312,0.9375 0,0.46875 0.21875,0.28125 1.4375,0.75 1.15625,1.0625 2.125,1.40625 0.25,0.0312 1.0625,-1.625 0.28125,-0.1875 1.5,0.375 0.75,-0.125 1.4375,-0.65625 0.65625,-0.28125 0.8125,-0.25 0.96875,-0.0625 0.28125,7.15625 0.15625,0.28125 2.5,1.65625 6.59375,4.375 1.375,0.90625 0.0937,0.3125 -0.0625,3.09375 0,0.4375 -5.71875,9.53125 -0.5,1.0625 -0.1875,0.1875 -0.5,0.4375 -1.03125,1.90625 -6.96865,7.40625 -1.0625,1.125 -7.0625,9 -3.625,4.625 -1.21875,1.84375 -0.90625,0.9375 -2.8125,2.21875 -2.625,2.09375 -2.125,1.5625 -5.4375,4.34375 -4.59375,3.6875 -0.96875,0.59375 -2.6875,2.4375 -0.6875,0.25 -1.25,0.96875 -10.21875,8 -0.15625,0.125 -4.28125,5.0625 -3.8125,4.84375 -1.90625,2.375 -0.84375,0.90625 432.96875,0 0.0937,-0.40625 0.375,-0.65625 -0.15625,-0.21875 -1.1875,-1.9375 -0.125,-0.1875 -1.3125,-2.0625 -0.125,-0.625 0.53125,-0.21875 1.21875,0.21875 0.1875,-0.875 2.03125,-0.625 1.25,-0.15625 0.6875,-0.40625 0.34375,0.0312 0.15625,0.0937 0.8125,0.4375 0.34375,0.125 0.25,-0.0937 0.0312,-0.59375 -0.34375,-1.15625 0.0312,-0.40625 1.9375,-6.59375 0.53125,-0.96875 0.875,-0.9375 1.40625,-1.5 1.0625,0.0937 1.21875,-1.25 0.75,-0.15625 0.96875,-0.5625 2.0625,-0.71875 0.5,-0.9375 0.875,-1.625 0.625,-0.9375 0.0625,-0.0937 0.25,-0.46875 0.0937,-0.59375 2.75,-5.25 0.125,-0.5 0.125,-0.625 0.71875,-4.625 2.0625,-12.875 0.65625,-4.1875 0.28125,-2.09375 -0.21875,-0.5 -3.03125,-4.28125 -0.1875,-0.28125 -0.28105,-0.3125 -0.0937,-0.0625 -0.1875,-0.21875 -1.0625,-1.625 -0.15625,-0.46875 -0.125,-0.78125 -0.65625,-3.71875 0,-1.21875 -0.65625,-2 -0.40625,-2.375 -1.8125,-10.46875 -0.40625,-2.375 -1.71875,-10.0625 -397.4375,0 z M 10.0931,489.4067 l -0.3438,1.125 0,0.6875 0.1563,0.1875 0.5937,0.125 0.625,0.78125 0,0.3125 -0.9687,1.90625 -0.7187,0.84375 -0.4688,0.15625 -1.0625,0.34375 1,2.625 -0.031,0.375 0,0.15625 -1.0312,1.75 -0.1562,1.40625 -0.4688,0.6875 -0.1875,0.65625 -0.1563,0.15625 -0.3437,-0.0625 0.031,1 -0.375,0.34375 -0.125,1.1875 -0.4063,0.375 -0.1875,0.46875 0.125,0.71875 -0.125,0.78125 0.375,0.9375 -0.1875,0.375 0.1563,0.59375 0.094,0.375 -0.2187,1.65625 0.2812,1.28125 -0.3438,0.625 0.125,0.625 -0.3437,0.65625 0.625,0.78125 -0.125,0.40625 0.8437,1.84375 -0.125,1.125 -1.125,1.84375 -0.3124,0.75 0.4374,1.4375 0.4688,2.5 0,0.5 -0.2188,0.46875 -0.5312,0.34375 -2.6875,-0.25 -0.75,0 -0.4063,0.15625 0,0.6875 -0.062,1.53125 0.6562,3.3125 -0.9062,2.4375 -0.4063,1.75 0.1875,1.6875 0.1875,1.96875 0.1875,1.8125 -0.031,3.3125 -0.4376,2.28125 -0.5,0.9375 -0.3124,1.15625 0.2187,0.9375 0.5313,1.1875 0.062,0.9375 -0.031,0.0937 -0.8438,2.5 0.031,0.5625 0.3437,0.9375 1.8438,1.625 0.625,0.84375 0.094,1.53125 -0.25,1.4375 -0.5938,1.40625 -0.031,0.75 -0.063,0.84375 0.125,0.53125 0.2813,0.40625 0.25,1.65625 0.6875,1.375 0.125,0.71875 -0.031,0.6875 -1.125,4.25 -0.031,2.25 0.1875,-0.0625 0.3438,-0.1875 1.1562,-0.0937 3.9062,0.1875 1.9376,-0.15625 1.0624,-0.6875 2.6876,-2.9375 0.25,-0.125 1.0312,-0.59375 0.625,-0.1875 1.25,0.0312 1.6875,0 0.9063,0.5625 1.3124,1.5625 0.1876,0.0312 0.031,0.0312 0.7188,0.125 0.375,0.0937 0.4687,-0.0937 0.3437,-0.21875 0.5938,-1.90625 0.5625,-0.625 0.5,-0.5625 0.8437,-1.90625 0.25,-0.3125 0.6563,0 0.031,0.0312 3.0312,4.5 0.15625,0 0.84375,-0.0312 0.15625,0.0625 0.0937,0 0.8125,0.53125 0.25,0.53125 -0.0312,0.78125 -0.0312,1.125 0.6875,2.59375 0.0937,1.625 1,2.3125 1.21875,1.96875 0.40625,0.90625 0.3125,0.3125 0.0625,0.0625 0.28125,0.0312 0.53125,0.0625 0.34375,-0.1875 1.59375,-0.90625 2.03125,-0.625 1.96875,-1.0625 0.5625,-0.15625 1.28125,-1.28125 0.3125,-0.34375 1,-0.96875 0.71875,-0.65625 0.21875,-0.0625 0.25,-0.0937 0.3125,-0.0312 0.0937,-0.0312 0.3125,0.21875 0.125,0.25 0.21875,0.4375 0.65625,0.5625 0.0937,0.125 0.90625,-0.0937 0.53125,-0.34375 0.1875,-0.4375 0.0625,-0.59375 -0.46875,-0.78125 0,-0.65625 0.125,-0.46875 0.28125,-0.25 1.25,-0.4375 0.8125,-0.8125 0.53125,-0.3125 1.65625,-0.3125 1.65625,0.0312 0.625,0.0312 0.4375,-0.3125 0.875,-1.0625 0.0625,-0.1875 0.4375,-1.0625 0.65625,-0.3125 0.0312,0 0.3125,0.15625 0.21875,0.0937 0.625,-0.0625 0.375,-0.3125 0.28125,-0.5625 0.0312,-1.9375 0.125,-0.5625 0.96875,-1.71875 0.0937,-0.4375 -0.3125,-1 -0.1875,-0.625 0.0625,-0.46875 0.8125,-0.5625 0.4375,-0.0312 0.0937,0 0.96875,0.6875 0.125,0.0937 0.65625,-0.0312 0.28125,-1.53125 1,0.0312 2.4375,-1.6875 0.84375,-1.15625 0.46875,-1.3125 2.5,-1.28125 0.46875,-0.71875 0,-0.125 -0.0625,-0.21875 0.21875,-0.4375 0.75,-0.25 0.34375,-0.6875 0.375,-0.0312 0.40625,-1.96875 0,-0.0937 0.40625,-2.0625 0.65625,-0.6875 1.34375,-0.59375 0.65625,-0.53125 0.5625,-0.25 1.03125,-0.1875 -0.15625,-1.15625 0,-1.28125 0.1875,-0.875 0.8125,-1.65625 -0.0625,-0.78125 0.125,-0.84375 0.46875,-0.46875 0.625,-0.21875 0.15625,-0.0625 0.125,-0.0625 0.0625,0 0.0312,-0.0312 0.84375,0.375 1.59375,0.375 0.375,0 0.59375,-0.3125 2.5625,0 0.78125,-0.21875 0.9375,-0.875 0.3125,-0.0937 0.1875,0.0937 0.53125,0.34375 0.0312,-0.0625 0.25,-0.34375 0.90625,0.15625 0.125,0.0312 0.125,0.0312 0.46875,0.21875 0.0625,-0.125 0.125,-0.15625 0.5625,-0.25 0.96875,-0.0312 0.59375,0.125 0.65625,0.3125 1.21875,1.125 0.3125,0.0625 0.3125,-0.0937 1.25,0.28125 1.09375,-0.0312 2.15625,-0.96875 1,0.0312 0.5,-0.28125 0.40625,-0.0937 0.34375,0.0937 0.15625,-0.1875 0.28125,-0.0625 1.46875,0.40625 0.40625,-0.0625 1.4375,0.34375 0.5,-0.0312 0.84375,0.0937 1.375,-0.28125 0.65625,0.0625 0.875,-0.40625 0.40625,-0.46875 0.46875,-0.3125 0.3125,-1.09375 0.4375,-0.90625 2.5,-2.03125 2.03125,-0.1875 0.53125,-0.3125 1.625,-0.46875 7.1875,0 46,0 76.4375,0 76.96875,0 14.84375,0 11.75,0 44.5625,0.125 50.875,0.15625 -0.0625,-0.875 -0.1875,-7.65625 -0.0625,-1.1875 0.125,-1.96875 -0.21875,-1.125 0.15625,-1.75 -0.125,-6.96875 -0.15625,-9.65625 -0.125,-3.34375 -0.25,-6.75 0.125,-6.28125 0,-0.6875 -437.8125,0 z"
     id="rect10" />
  <path
     style="fill:#fcdc04;fill-opacity:1"
     d="m 130.12435,97.87545 -0.375,0.375 -0.375,0.875 0.0312,0.5625 -0.0625,0.46875 -0.125,0.625 -1.09375,2.125 -0.375,2.09375 -1.21875,3.65625 -0.40625,2.28125 -0.40625,1.65625 -1.5,5.75 -0.21875,0.40625 -1.15625,1.0625 -0.25,0.625 0.625,1.6875 1.125,1.53125 0.46875,0.40625 0.34375,0.28125 0.78125,0.3125 0.90625,0.625 0.6875,0.125 0.46875,0.375 1.21875,1.875 1.8125,1.625 0.625,1.375 1.03125,2.96875 0.25,0.78125 0.65625,0.71875 1.03125,2.28125 0.25,1.1875 -0.15625,3.96875 -0.25,1.03125 -0.875,2.21875 -0.0625,0.0625 -0.90625,1.03125 -1.28125,1.8125 -1,0.5625 -1.03125,1.25 -1.21875,2.96875 -0.0625,0.46875 -1.25,2.6875 -0.125,0.25 -0.90625,2.875 -1.375,4.34375 -0.78125,1.5 -1.71875,1.71875 -0.15625,0.4375 0,0.5625 -0.0312,0.59375 0.375,1.375 0.28125,5.3125 -0.1875,1.25 -1.28125,1.9375 -0.0937,1.21875 0.0937,0.875 0.0937,0.84375 0.53125,1.46875 0.1875,0.1875 0.6875,0 0.78125,-0.375 0.65625,-0.0625 0.46875,0.0625 2.34375,1.09375 3.1875,0.3125 1,1.53125 1.53125,2.28125 1.8125,3.625 0.5625,0.8125 0.46875,0.25 4.125,0.78125 0.46875,0.0312 0.0625,0.0312 0.375,-0.1875 0.1875,-0.21875 0.46875,-1.40625 -0.34375,-2.25 0.65625,-1.84375 0.40625,-0.5 1.28125,-0.84375 2.53125,-0.25 1.5,0.875 6.625,5.3125 0.5,0.59375 0.4375,1.40625 0.0312,0.75 0.25,0.53125 397.4375,0 -0.46875,-2.78125 -0.78125,-4.5625 -0.1875,-1.53125 0.0625,-0.875 0.34375,-0.875 3.5,-3.59375 0.0937,-0.53125 -1.59375,-1.65625 -0.46875,-1.0625 -0.125,-0.34375 -0.46875,-3.15625 -1.90625,-0.15625 -0.5625,-0.4375 -0.28125,-0.4375 -0.3125,-0.96875 -0.125,-1.25 -0.34375,-3.46875 -0.28125,-0.4375 -0.25,-0.0937 -0.6875,0.125 -0.21875,0.65625 -0.0312,0.65625 -0.4375,0.59375 -1.125,0.0312 -0.3125,-0.25 -1.6875,-2.125 -0.9375,-1.40625 -4.15625,-6.21875 -1.8125,-2.6875 -0.0312,-2.3125 -0.125,-6.34375 -0.5,-3.75 -2.0625,-1.21875 -0.15625,-0.5 -0.375,-1 -0.4375,-0.65625 -0.6875,-0.5625 -1.71875,-0.625 -1.25,-1.71875 -0.40625,-0.125 -0.4375,0.0625 -1.78125,0.96875 -2.53125,0.0312 -0.6562,-0.53125 -0.15625,-0.125 -0.71875,-1.0625 -0.53125,-1.71875 -0.3125,-0.34375 -0.84375,-0.46875 -2.0625,-0.8125 -0.90625,-0.53125 -0.78125,-4.84375 -0.0625,-0.125 -0.4375,-1.625 -0.0312,-0.0625 -0.9375,-4.625 -0.25,-1.59375 -0.0625,-1.75 -0.5625,-3 -0.0625,-0.125 -0.40625,-0.8125 -0.0937,-0.1875 -0.25,-0.3125 -0.21875,0.0625 -0.125,-0.25 -0.0625,-0.15625 -0.5625,-2.5625 -0.375,-0.34375 -3.4375,-1.21875 -1.09375,-0.0312 -0.46875,0.34375 -0.40625,0.0937 -0.4375,-0.90625 -0.5,-0.4375 -0.21875,-0.125 -1.5625,-0.875 -0.46875,-0.53125 -1,-2.25 -0.21875,-5.21875 -0.46875,-2.21875 -372.25,0 z m -97.5,293.625 -1.5,1.9375 -0.34375,0.4375 -1.34375,3.96875 -0.34375,1.5625 -0.28125,1.34375 -1.09375,5.125 -0.53125,3.125 -0.25,0.40625 -0.0312,0.8125 -1.03125,4.21875 -1,2.96875 -0.5625,0.375 -0.6563,0.0312 -1.4375,-0.53125 -1.75,0 -0.5312,0.5 -1.0938,1.875 -0.4375,0.65625 -1.7812,0.71875 -0.094,0.9375 -0.25,0.9375 -0.1875,1.0625 0.1562,1.625 -0.25,0.84375 -0.5,0.125 -0.8437,-0.0312 -0.4687,1.03125 0.2812,2.15625 0,0.96875 0.25,0.90625 0.7188,1.4375 0.6874,1.28125 0.2188,0.90625 0.062,0.34375 0.2813,0.40625 0.7812,0.5625 0.031,0.90625 -1.0312,1 -0.6562,1.75 -0.4063,4.46875 -0.4687,2.4375 -1.0626,5.46875 -1.4062,7.28125 -1.1562,6.0625 -1.3126,6.71875 -0.2812,1.5 -1.4062,8.4375 1.7187,0.875 0.2187,0.53125 0.063,0.375 0.2187,1.1875 -0.1563,0.65625 -0.4062,0.8125 0.2812,1.0625 -0.1562,1.3125 0,0.0312 437.81255,0 0.0312,-0.71875 0.375,-6.75 0.3125,-1 -0.0625,-1.25 0.5,-2.5 0.34375,-1.6875 -0.0625,-0.5625 0.3125,-1.03125 0.625,-4.375 0.40625,-2.625 0.5,-1.90625 0.53125,-0.28125 -0.5,-0.9375 0.5625,-2.5625 0.1875,-1.59375 0.53125,-4.625 0.28125,-0.65625 0.84375,-5.1875 -0.0625,-1.03125 -2.875,-11.0625 -0.71875,-2.75 -0.1875,-1.90625 -1.53125,-4.78125 -0.0625,-0.1875 -0.25,-0.59375 -0.1875,-0.0937 -0.75,-3.03125 1.0625,-1.8125 1,-1.375 0.75,-1.09375 0.4375,-0.59375 0.71875,-1.03125 0.90625,-0.96875 0.3125,-0.3125 0.15625,-0.625 0.34375,-0.5 3.84375,-5.4375 1.09375,-1.5625 1.375,-1.8125 1.40625,-1.34375 0.28125,-0.28125 1.34375,-2.53125 2.4375,-2.59375 1.28125,-1.34375 0.75,-0.875 0.4375,-0.75 0.34375,-0.53125 0.375,-1.4375 0.0625,-1.28125 -0.4375,-1.84375 -0.125,-0.28125 -434.53125,0 z"
     id="rect8" />
  <path
     d="m 398.8436,293.62598 a 90.492275,91.430923 0 0 1 -180.9844,0 90.492275,91.430923 0 1 1 180.9844,0 z"
     id="path16"
     style="fill:#fffdff;stroke:none" />
  <path
     style="fill:#d90000;stroke:#000000;stroke-width:0.97376847000000000;fill-opacity:1"
     d="m 292.3863,223.53441 -5.8749,-10.93354 c 2.267,-2.29053 6.081,-4.06111 12.1613,-4.06111 0,0.41661 -0.6186,11.97505 -0.6186,11.97505 l -5.6678,3.0196 z"
     id="path18" />
  <path
     style="fill:#fcdc04;stroke:#000000;stroke-width:0.97376847000000000;fill-opacity:1"
     d="m 298.0541,220.61896 0.8248,-12.0792 c 0,0 12.1614,-0.72827 18.7572,7.28902 0.103,-0.10415 -6.4927,9.37125 -6.4927,9.37125 l -13.0893,-4.58107 z"
     id="path20" />
  <path
     style="fill:#d90000;stroke:#000000;stroke-width:0.97376847000000000;fill-opacity:1"
     d="m 311.3495,225.09589 5.9772,-9.37126 c 4.0194,4.26942 5.668,7.28902 6.2864,11.87089 0.1032,0.10416 -9.4812,2.3947 -9.4812,2.29054 0,-0.10415 -2.6793,-4.68603 -2.7824,-4.79017 z"
     id="path22" />
  <path
     style="fill:#000000;stroke:#000000;stroke-width:0.97376847"
     d="m 295.3749,379.83251 c 0,0 11.2336,-13.01656 33.0824,-10.20448 -3.2979,-5.41508 -13.913,-4.79017 -13.913,-4.79017 0,0 -3.2978,-25.30326 -0.7215,-26.55308 2.5762,-1.24981 13.5006,0.10416 13.5006,0.10416 1.4424,0 3.9163,-3.95697 1.9585,-6.45581 -1.9585,-2.49964 -7.7296,-12.0792 -5.3595,-13.95392 2.3709,-1.87394 15.2531,1.0415 15.2531,1.0415 l -36.3803,-47.06616 c 0,0 -3.7102,-17.70179 3.7103,-26.24063 8.9666,-7.49733 8.0388,-15.61956 7.7295,-15.5154 -1.237,-8.22639 -13.6037,-14.16223 -21.9517,-6.55997 -4.9474,6.03921 -1.6494,10.62108 -1.6494,10.62108 0,0 -12.9853,3.54036 -13.5006,5.8309 -0.5154,2.29133 14.6345,-0.41581 14.6345,-0.41581 l -1.4431,10.51692 c 0,0 -29.4754,27.07304 -6.9051,50.50238 0.2061,-0.10416 0.7216,-1.04152 0.7216,-1.04152 0,0 7.9359,9.89282 16.2831,12.0792 7.8327,8.12223 7.1119,6.87242 7.1119,6.87242 0,0 1.5455,12.80825 0.1031,15.30709 -1.9585,-0.62491 -21.9519,-1.35317 -24.9412,-0.2083 -2.6795,0.83322 -12.9852,0.31245 -10.4089,17.28598 1.9578,-4.58187 3.7101,-8.64299 3.7101,-8.64299 0,0 -0.3092,6.14334 2.1646,8.33054 -0.4122,-6.4566 2.3702,-10.82939 2.3702,-10.82939 0,0 0.5154,7.08072 2.0608,8.12144 1.5463,1.04152 1.5463,-11.45429 10.1007,-10.41277 8.5534,1.04152 14.7376,0.72906 14.7376,0.72906 0,0 2.8854,24.47005 1.9577,26.76138 -6.1842,-1.45811 -20.921,0.62491 -21.8487,4.37359 8.6566,-0.52077 12.6767,0.51995 12.6767,0.51995 0,0 -7.008,6.24829 -4.844,9.89281 z"
     id="path24" />
  <path
     style="fill:#9ca69c;stroke:#9ca69c;stroke-width:0.97376847"
     d="m 298.8489,246.311 c 0,0 -21.4474,23.8849 -12.1943,42.1623 0.4926,-2.54892 0.2777,-4.15016 0.587,-4.046 -0.5154,-0.31246 2.6597,2.19911 2.4181,1.71014 0.067,-1.32136 -0.9671,-4.15333 -0.9671,-4.15333 0.9671,0.24407 1.935,0.48895 2.902,0.73303 -0.5641,-1.059 -1.1291,-2.11722 -1.6933,-3.17623 1.3708,0.163 2.7407,0.32518 4.1114,0.48816 0,0 -1.4509,-3.90926 -0.967,-3.90926 0.4831,0 3.3852,0.24409 3.3852,0.24409 -6.0992,-11.05915 -0.3454,-20.24357 2.418,-30.0529 z"
     id="path26" />
  <path
     style="fill:#9ca69c;stroke:#9ca69c;stroke-width:0.97376847"
     d="m 306.2992,225.82494 c 0,0 1.134,8.22639 -3.2979,10.62108 -0.7215,0.52076 -3.504,1.45812 -3.0916,3.12454 0.5154,2.29055 1.7516,1.87394 3.5041,1.45733 4.6371,-0.83321 9.9965,-10.82937 2.8854,-15.20295 z"
     id="path28" />
  <path
     style="fill:#ffffff"
     d="m 298.3635,232.90593 a 1.7520331,1.7702006 0 0 1 -3.5039,0 1.7520331,1.7702006 0 1 1 3.5039,0 z"
     id="path30" />
  <path
     style="fill:#d90000;stroke:#000000;stroke-width:0.97376847000000000;fill-opacity:1"
     d="m 291.4585,239.77807 c -1.1338,0.93737 -7.1111,7.18567 -1.237,9.47621 6.0812,-1.66643 4.4318,-2.8113 5.772,-4.16527 0.034,-2.81129 -3.0233,-3.54036 -4.535,-5.31094 z"
     id="path32" />
  <path
     style="fill:#9ca69c;stroke:#9ca69c;stroke-width:0.97376847"
     d="m 304.4438,298.82009 c -0.3093,1.35397 -1.6486,6.35165 0.2061,10.20446 5.1534,-2.18639 7.5235,-1.56227 9.2759,-0.4166 -4.2248,-3.43621 -5.8742,-4.89433 -9.482,-9.78786 z"
     id="path34" />
  <path
     style="fill:#ffffff;stroke:#ffffff;stroke-width:0.97376847"
     d="m 313.3073,322.45693 0.3093,11.66259 c 0,0 4.0195,0.72906 5.8741,0 1.8554,-0.72906 -0.1031,-8.12223 -6.1834,-11.66259 z"
     id="path36" />
  <path
     style="fill:#9ca69c;stroke:#000000;stroke-width:0.97376847"
     d="m 342.4733,323.91505 c 0,0 -7.4203,-18.1184 -26.3836,-22.70027 -18.9633,-4.58187 -16.4901,-24.99081 -14.9438,-26.24063 0.8247,-1.77058 1.4432,-4.47773 6.905,-1.87394 5.4625,2.603 30.6092,15.41046 34.2163,16.03537 3.6071,0.62491 0.5153,35.19607 0.2061,34.77946 z"
     id="path38" />
  <path
     style="fill:#d90000;stroke:#000000;stroke-width:0.97376847000000000;fill-opacity:1"
     d="m 324.4379,301.11063 c -0.3094,0.2083 25.3528,15.3063 17.6231,28.32286 7.3182,-4.89433 4.9472,-13.43237 4.9472,-13.43237 0,0 5.9771,15.7237 -8.5543,23.42934 1.5462,1.35396 2.5771,1.04071 2.5771,1.04071 l -2.4741,2.49964 c 0,0 -1.1339,1.87394 8.6575,-2.91625 -2.6802,2.18719 -2.8855,3.74867 -2.8855,3.74867 0,0 0.7207,2.08302 7.111,-3.54036 -5.1533,5.62338 -6.2873,8.53883 -6.2873,8.43468 13.9131,-1.24981 44.2131,-46.96202 -9.5842,-60.49933 2.8863,3.02039 2.4731,2.60379 2.4731,2.60379 l -13.6036,10.30862 z"
     id="path40" />
  <path
     style="fill:#ffffff;stroke:#000000;stroke-width:0.97376847"
     d="m 325.5718,296.63291 c 3.5039,2.49884 4.7402,3.33204 5.1524,4.58187 -3.1947,-0.72827 -6.0802,-0.52076 -6.0802,-0.52076 0,0 -6.9049,-6.66411 -8.1419,-7.18487 -0.9278,0 -6.2865,-3.43621 -6.2865,-3.43621 -2.6794,-1.35397 -5.1525,-10.72522 4.7411,-8.01807 10.2019,4.89352 11.6451,5.31092 11.6451,5.31092 4.0541,1.28401 8.1073,2.56882 12.1613,3.85282 2.3364,2.63798 4.6718,5.27595 7.0081,7.91393 0,0 -12.4699,-6.2483 -14.0161,-6.35244 3.401,2.81129 5.3595,6.6641 5.3595,6.6641 -3.9509,-1.14567 -7.3857,-2.18639 -11.5428,-2.81129 z"
     id="path42" />
  <path
     style="stroke:#ffffff;stroke-width:0.97376847"
     d="m 277.0301,240.71544 c 0,0 11.9553,-2.91545 13.3976,-2.49885"
     id="path44" />
</svg>
